#!OML:ASF H:\Terrain\Patient Classification 1\PLAYGROUND\JustinFriday\JustinFriday.ASF
:FULLY-SPECIFIED
:DEGREES
2119
root 3.46817 17.6242 -14.3491 7.14552 -47.9463 -14.3442
lowerback 12.0053 2.59788 8.72373
upperback 1.92685 4.62975 2.88401
thorax -4.24047 2.14467 -2.55449
lowerneck -10.0123 -7.98967 -2.90644
upperneck 0.380459 -10.81 10.4438
head 2.7283 -5.12284 3.32829
rclavicle -5.24729e-014 -4.6118e-014
rhumerus -23.5414 21.5496 -89.785
rradius 68.8649
rwrist -9.51378
rhand -15.7827 -34.9052
rfingers 7.12502
rthumb 10.4097 -784.627
lclavicle -5.24729e-014 -4.6118e-014
lhumerus -20.8306 -14.9638 84.7229
lradius 77.8355
lwrist -18.4341
lhand -24.3873 -8.59962
lfingers 7.12502
lthumb 2.10336 21.3698
rfemur -5.21594 1.92803 28.9312
rtibia 30.7577
rfoot -15.9016 0.418146
rtoes 2.2114
lfemur -15.8768 -3.61373 0.0732291
ltibia 63.6749
lfoot -6.96857 -9.29941
ltoes -20.1643
2120
root 3.41576 17.6451 -14.4185 10.0902 -52.7719 -15.8879
lowerback 11.7842 4.29355 8.9648
upperback 1.07421 6.90421 1.66816
thorax -4.60348 3.22458 -4.26883
lowerneck -8.20568 -7.92639 -1.82911
upperneck -0.382431 -10.8434 11.6929
head 2.16439 -5.19543 3.63494
rclavicle -1.24489e-014 -5.40694e-014
rhumerus -22.8868 20.1803 -91.5334
rradius 68.2311
rwrist -8.5664
rhand -12.9222 -31.2696
rfingers 7.12502
rthumb 13.1682 -780.834
lclavicle -1.24489e-014 -5.40694e-014
lhumerus -21.5964 -14.8696 82.7735
lradius 81.0503
lwrist -19.5854
lhand -23.3404 -9.2706
lfingers 7.12502
lthumb 3.11434 20.6864
rfemur -7.19275 4.50745 29.0311
rtibia 31.1643
rfoot -15.2584 3.19946
rtoes 4.31341
lfemur -16.0443 1.90051 0.525024
ltibia 63.2416
lfoot -7.19325 -9.07293
ltoes -16.923
2121
root 3.35823 17.6359 -14.4363 9.73949 -51.6532 -15.3727
lowerback 11.2858 2.69963 8.12356
upperback 1.62209 4.63882 2.92047
thorax -4.21503 2.15443 -2.15504
lowerneck -9.19859 -6.9359 -5.91053
upperneck 0.298347 -9.19004 13.0015
head 2.49632 -4.27865 4.38771
rclavicle -7.16867e-014 -6.80837e-015
rhumerus -21.0146 26.3496 -90.7678
rradius 69.0966
rwrist -7.48032
rhand -14.0304 -32.5747
rfingers 7.12502
rthumb 12.0998 -782.205
lclavicle -7.16867e-014 -6.80837e-015
lhumerus -22.1514 -8.70573 83.0898
lradius 83.8643
lwrist -21.5689
lhand -24.2617 -9.33256
lfingers 7.12502
lthumb 2.22461 20.6356
rfemur -7.23936 4.34054 29.2332
rtibia 31.5777
rfoot -15.6328 2.43619
rtoes 6.11094
lfemur -16.9501 1.90048 0.510314
ltibia 62.7496
lfoot -7.61036 -9.00636
ltoes -16.0015
2122
root 3.3062 17.6256 -14.4443 9.23426 -50.6635 -14.5632
lowerback 11.092 2.47861 7.78415
upperback 1.55027 4.29062 2.80103
thorax -4.23118 1.9882 -2.03934
lowerneck -9.05342 -7.06298 -5.18899
upperneck 0.325141 -9.40287 12.2407
head 2.42289 -4.40506 4.03263
rclavicle 1.88038e-014 -1.12313e-014
rhumerus -20.0364 26.5426 -90.5496
rradius 69.1094
rwrist -6.02069
rhand -16.4903 -22.9959
rfingers 7.12502
rthumb 9.72709 -772.751
lclavicle 1.88038e-014 -1.12313e-014
lhumerus -22.0399 -8.70377 82.5435
lradius 85.8761
lwrist -22.7807
lhand -24.9153 -9.27956
lfingers 7.12502
lthumb 1.59337 20.6942
rfemur -7.47562 3.94715 29.1704
rtibia 32.0411
rfoot -16.0163 1.51878
rtoes 5.61263
lfemur -17.8161 1.88123 0.105275
ltibia 62.2156
lfoot -8.38484 -8.45395
ltoes -16.7034
2123
root 3.26287 17.6046 -14.4313 7.98138 -49.6372 -13.586
lowerback 11.5802 2.74081 7.68925
upperback 1.82586 4.62982 2.17869
thorax -4.1348 2.16533 -2.7004
lowerneck -10.3109 -7.50174 -3.24807
upperneck 0.822698 -10.1775 11.095
head 2.67319 -4.75789 3.28102
rclavicle 6.88665e-014 -2.82274e-014
rhumerus -18.5968 24.8378 -90.1519
rradius 69.7655
rwrist -4.8871
rhand -17.9256 -19.6073
rfingers 7.12502
rthumb 8.34213 -769.423
lclavicle 6.88665e-014 -2.82274e-014
lhumerus -20.6898 -10.9769 81.6126
lradius 87.5768
lwrist -23.5999
lhand -25.567 -8.66835
lfingers 7.12502
lthumb 0.963967 21.3092
rfemur -7.04256 3.06635 28.8752
rtibia 32.4352
rfoot -16.513 0.624517
rtoes 3.46738
lfemur -18.0446 1.37187 -0.610975
ltibia 61.6486
lfoot -9.00104 -7.85515
ltoes -16.2814
2124
root 3.23431 17.5548 -14.3488 6.08627 -44.1779 -12.7525
lowerback 11.578 0.801388 9.25566
upperback 2.30297 2.21498 2.22528
thorax -3.8012 0.977981 -3.18396
lowerneck -10.6958 -7.52173 -3.67691
upperneck 0.715751 -10.1503 11.3188
head 2.73599 -4.73077 3.40498
rclavicle -5.21126e-014 5.76476e-015
rhumerus -17.2544 25.4731 -89.5035
rradius 70.485
rwrist -4.00892
rhand -18.5032 -19.2524
rfingers 7.12502
rthumb 7.78464 -769.089
lclavicle -5.21126e-014 5.76476e-015
lhumerus -20.0681 -10.8483 81.1972
lradius 89.5539
lwrist -24.4579
lhand -26.1782 -8.88716
lfingers 7.12502
lthumb 0.373644 21.0923
rfemur -5.722 -0.447479 29.2184
rtibia 32.8107
rfoot -17.7454 -1.8548
rtoes 2.00621
lfemur -19.339 -2.96218 -0.868002
ltibia 61.1463
lfoot -9.50862 -7.52907
ltoes -16.571
2125
root 3.19197 17.5405 -14.3078 5.64352 -43.9897 -12.2297
lowerback 11.4817 0.141544 8.65308
upperback 2.09502 1.30434 2.99384
thorax -4.11255 0.518235 -1.91392
lowerneck -9.14743 -7.04798 -6.58845
upperneck 0.110311 -9.19433 12.1458
head 2.41405 -4.30747 4.24158
rclavicle -8.59744e-015 5.1684e-015
rhumerus -16.7738 28.8936 -88.8757
rradius 71.2305
rwrist -3.7249
rhand -18.1239 -19.7583
rfingers 7.12502
rthumb 8.15076 -769.581
lclavicle -8.59744e-015 5.1684e-015
lhumerus -21.1781 -7.90695 81.4621
lradius 91.887
lwrist -25.128
lhand -26.8177 -9.74589
lfingers 7.12502
lthumb -0.244014 20.2337
rfemur -5.63412 -1.38001 28.6833
rtibia 33.1677
rfoot -18.2535 -1.35098
rtoes 1.75961
lfemur -19.4414 -2.64766 -1.65136
ltibia 60.3932
lfoot -10.3559 -6.27796
ltoes -17.2183
